<svg width="3156" height="1004" viewBox="0 0 3156 1004" fill="none" xmlns="http://www.w3.org/2000/svg">
<path d="M815.384 162.847L587.957 32.1512C513.545 -10.7171 422.365 -10.7171 347.953 32.1512L119.478 162.847C46.1143 205.715 0 285.179 0 369.87V632.307C0 718.044 46.1143 796.461 119.478 839.329L346.905 971.071C421.317 1013.94 512.497 1013.94 586.909 971.071L814.336 839.329C888.747 796.461 933.814 718.044 933.814 632.307V369.87C935.91 285.179 889.796 205.715 815.384 162.847ZM467.431 734.773C338.521 734.773 233.715 630.216 233.715 501.611C233.715 373.006 338.521 268.45 467.431 268.45C596.341 268.45 702.194 373.006 702.194 501.611C702.194 630.216 597.389 734.773 467.431 734.773Z" fill="url(#paint0_linear_622_1430)"/>
<path d="M1442.01 698.818H1377.49V531.705C1377.49 513.073 1372.93 498.434 1363.79 487.787C1354.66 476.76 1342.1 471.247 1326.11 471.247C1307.84 471.247 1293.56 477.331 1283.29 489.498C1273.39 501.666 1268.44 518.396 1268.44 539.69V698.818H1203.35V419.345H1267.3V443.87C1284.81 422.957 1308.98 412.5 1339.81 412.5C1374.45 412.5 1400.52 424.668 1418.03 449.003C1439.73 424.668 1468.85 412.5 1505.39 412.5C1541.93 412.5 1569.53 423.147 1588.18 444.44C1607.21 465.353 1616.73 495.962 1616.73 536.267V698.818H1551.64V531.705C1551.64 513.073 1547.07 498.434 1537.94 487.787C1528.8 476.76 1516.24 471.247 1500.25 471.247C1481.98 471.247 1467.71 477.521 1457.43 490.069C1447.15 502.236 1442.01 518.777 1442.01 539.69V698.818Z" fill="#111827"/>
<path d="M1933.38 555.659L1932.8 578.474H1741.53C1743.05 599.387 1750.48 615.927 1763.8 628.094C1777.12 640.262 1794.25 646.346 1815.19 646.346C1845.26 646.346 1869.24 633.228 1887.13 606.991L1931.09 648.057C1901.4 686.08 1862.77 705.092 1815.19 705.092C1772.93 705.092 1739.06 691.784 1713.55 665.167C1687.67 638.171 1674.73 603.379 1674.73 560.793C1674.73 519.347 1686.53 484.175 1710.13 455.277C1734.11 426.759 1765.89 412.5 1805.48 412.5C1847.73 412.5 1879.51 426.569 1900.83 454.707C1922.53 482.844 1933.38 516.495 1933.38 555.659ZM1806.05 471.817C1789.68 471.817 1776.17 476.951 1765.51 487.217C1755.24 497.483 1748.38 510.601 1744.96 526.571H1864.29C1863.91 510.982 1858.77 498.054 1848.87 487.787C1838.98 477.141 1824.7 471.817 1806.05 471.817Z" fill="#111827"/>
<path d="M2125.11 412.5C2156.32 412.5 2182.39 421.626 2203.33 439.877V299H2268.42V698.818H2204.47V673.723C2184.68 694.636 2158.22 705.092 2125.11 705.092C2085.52 705.092 2052.78 691.404 2026.9 664.027C2001.4 636.27 1988.65 601.288 1988.65 559.082C1988.65 516.875 2001.4 481.894 2026.9 454.136C2052.4 426.379 2085.14 412.5 2125.11 412.5ZM2184.49 495.202C2171.16 478.471 2152.89 470.106 2129.67 470.106C2106.46 470.106 2088.18 478.471 2074.86 495.202C2061.54 511.932 2054.88 533.225 2054.88 559.082C2054.88 584.938 2061.54 606.231 2074.86 622.961C2088.18 639.692 2106.46 648.057 2129.67 648.057C2152.89 648.057 2171.16 639.692 2184.49 622.961C2197.81 606.231 2204.47 584.938 2204.47 559.082C2204.47 533.225 2197.81 511.932 2184.49 495.202Z" fill="#111827"/>
<path d="M2340.08 419.345H2405.17V586.459C2405.17 605.09 2409.74 619.919 2418.88 630.946C2428.01 641.593 2440.95 646.916 2457.7 646.916C2475.59 646.916 2489.67 640.642 2499.95 628.094C2510.61 615.166 2515.94 598.056 2515.94 576.763V419.345H2581.03V698.818H2517.08V676.004C2499.19 695.396 2475.02 705.092 2444.57 705.092C2412.59 705.092 2387.09 694.255 2368.06 672.582C2349.41 650.528 2340.08 620.3 2340.08 581.896V419.345Z" fill="#111827"/>
<path d="M2773.92 593.303L2736.8 584.177C2680.09 570.869 2651.73 541.401 2651.73 495.772C2651.73 470.677 2661.25 450.524 2680.28 435.315C2699.31 420.105 2723.86 412.5 2753.93 412.5C2794.28 412.5 2829.49 428.09 2859.56 459.27L2817.88 503.757C2800.75 480.183 2778.86 468.395 2752.22 468.395C2740.8 468.395 2731.47 471.057 2724.24 476.38C2717.39 481.323 2713.96 487.407 2713.96 494.632C2713.96 507.56 2723.1 516.305 2741.37 520.868L2785.33 531.134C2842.43 544.062 2870.98 573.15 2870.98 618.398C2870.98 644.254 2861.08 665.167 2841.29 681.137C2821.88 697.107 2794.85 705.092 2760.21 705.092C2711.49 705.092 2672.86 687.031 2644.31 650.909L2685.42 608.702C2705.97 635.699 2732.62 649.198 2765.35 649.198C2793.9 649.198 2808.17 639.692 2808.17 620.68C2808.17 608.512 2796.75 599.387 2773.92 593.303Z" fill="#111827"/>
<path d="M3011.24 705.092C2984.21 705.092 2961.76 697.487 2943.87 682.278C2925.98 666.688 2917.03 645.966 2917.03 620.109C2917.03 590.451 2927.69 567.447 2949 551.097C2970.32 534.746 2998.49 526.571 3033.51 526.571C3051.02 526.571 3069.86 529.803 3090.03 536.267V517.446C3090.03 503.757 3084.89 492.73 3074.62 484.365C3064.34 475.62 3051.21 471.247 3035.22 471.247C3005.91 471.247 2983.83 484.745 2968.99 511.742L2925.02 470.677C2935.3 452.045 2950.34 437.786 2970.13 427.9C2990.3 417.634 3012.19 412.5 3035.79 412.5C3072.71 412.5 3101.83 421.626 3123.15 439.877C3144.46 458.129 3155.12 484.175 3155.12 518.016V698.818H3091.17V677.145C3070.24 695.776 3043.59 705.092 3011.24 705.092ZM2982.12 615.547C2982.12 625.052 2985.74 632.847 2992.97 638.931C3000.58 645.015 3011.05 648.057 3024.37 648.057C3051.78 648.057 3073.66 640.072 3090.03 624.102V592.162C3069.48 584.557 3050.06 580.755 3031.79 580.755C3016.57 580.755 3004.39 583.797 2995.25 589.881C2986.5 595.964 2982.12 604.52 2982.12 615.547Z" fill="#111827"/>
<defs>
<linearGradient id="paint0_linear_622_1430" x1="0" y1="1003.22" x2="1126.29" y2="688.432" gradientUnits="userSpaceOnUse">
<stop stop-color="#7C53FF"/>
<stop offset="1" stop-color="#F796FF"/>
</linearGradient>
</defs>
</svg>
